<?xml version="1.0" encoding="UTF-8"?>
<svg width="200px" height="200px" viewBox="0 0 200 200" version="1.1" xmlns="http://www.w3.org/2000/svg" xmlns:xlink="http://www.w3.org/1999/xlink">
    <!-- Generator: Sketch 45.2 (43514) - http://www.bohemiancoding.com/sketch -->
    <title>Sorting Hat</title>
    <desc>Created with Sketch.</desc>
    <defs></defs>
    <g id="Page-1" stroke="none" stroke-width="1" fill="none" fill-rule="evenodd">
        <g id="Sorting-Hat" fill-rule="nonzero" fill="#231F20">
            <g id="g10" transform="translate(100.000000, 100.000000) scale(-1, 1) rotate(-180.000000) translate(-100.000000, -100.000000) translate(4.000000, 21.000000)">
                <g id="sorting_hat" transform="translate(0.328101, 0.450085)">
                    <path d="M73.5274013,41.1120954 C67.5977722,50.9766264 62.8540689,39.6676377 62.8540689,39.6676377 C62.8540689,39.6676377 67.2024636,55.0672799 73.329747,45.9237918 C79.4570305,36.7803036 83.2124622,32.931579 91.9092516,39.6676377 C100.606041,46.4052776 106.122177,51.6692071 112.554639,42.5415313 C118.987891,33.4130649 123.336286,44.96082 123.336286,44.96082 C123.336286,44.96082 120.452114,30.2853832 112.554639,38.2247613 C104.657954,46.16493 97.8388808,41.2132944 92.5022146,35.868722 C87.1655483,30.5257308 80.509342,29.4971378 73.5274013,41.1120954 M77.4148662,68.51726 C81.1260234,68.51726 84.1351125,65.5081709 84.1351125,61.7978043 C84.1351125,58.086647 81.1260234,55.0775579 77.4148662,55.0775579 C73.703709,55.0775579 70.6946198,58.086647 70.6946198,61.7978043 C70.6946198,65.5081709 73.703709,68.51726 77.4148662,68.51726 M110.446854,68.51726 C114.085274,68.51726 117.034276,65.5674672 117.034276,61.9298373 C117.034276,58.2914169 114.085274,55.3416241 110.446854,55.3416241 C106.807643,55.3416241 103.85864,58.2914169 103.85864,61.9298373 C103.85864,65.5674672 106.807643,68.51726 110.446854,68.51726 M95.202963,0.657002909 C147.746593,0.657002909 190.341095,9.2707775 190.341095,19.8943011 C190.341095,27.5933315 167.976115,34.2353068 135.671496,37.3092265 C134.930688,53.135802 130.254187,67.8578852 130.254187,67.8578852 L126.719337,54.6814587 L128.409677,69.4391197 C127.882335,96.0576202 108.644246,130.844778 102.319309,137.960333 C95.9943708,145.075888 103.636477,154.827361 96.784988,156.408595 C89.9327086,157.989829 79.6546848,138.75095 80.9726437,121.883922 C82.2906026,105.018476 78.3367259,95.793554 78.3367259,95.793554 C79.3914092,88.4155142 85.4522808,77.0828069 85.4522808,77.0828069 C80.1820264,82.0889952 75.9648742,92.8951513 75.9648742,92.8951513 C70.1672781,79.1921737 54.8822755,66.0141659 52.7736993,48.094036 C52.2858885,43.9480393 52.7072875,40.3285937 53.6331002,37.2048651 C53.6331002,37.2048651 64.3696821,18.0505817 87.1655483,18.0505817 C87.1655483,18.0505817 65.4891961,13.3796152 51.2296239,36.9574019 C20.8256482,33.7459147 0.0656212291,27.3110812 0.0656212291,19.8943011 C0.0656212291,9.2707775 42.6601239,0.657002909 95.202963,0.657002909" id="path96"></path>
                </g>
            </g>
        </g>
    </g>
</svg>