<?xml version="1.0" encoding="UTF-8"?>
<svg width="200px" height="200px" viewBox="0 0 200 200" version="1.1" xmlns="http://www.w3.org/2000/svg" xmlns:xlink="http://www.w3.org/1999/xlink">
    <!-- Generator: Sketch 45.2 (43514) - http://www.bohemiancoding.com/sketch -->
    <title>Ilvermorny</title>
    <desc>Created with Sketch.</desc>
    <defs></defs>
    <g id="Page-1" stroke="none" stroke-width="1" fill="none" fill-rule="evenodd">
        <g id="Ilvermorny" fill-rule="nonzero" fill="#000000">
            <g id="noun_1103660_cc" transform="translate(15.000000, 27.000000)">
                <path d="M150.16119,23.6063277 L117.823755,23.6063277 L117.823755,15.0138092 C117.811036,6.72718558 111.096569,0.012719322 102.809946,0 L66.9846873,0 C58.6980636,0.012719322 51.9835974,6.72718558 51.970878,15.0138092 L51.970878,23.6063277 L19.6334428,23.6063277 C8.7954683,23.6190558 0.0127281101,32.401796 0,43.2397705 L0,127.039924 C0.0127281101,137.877899 8.7954683,146.660639 19.6334428,146.673367 L150.16119,146.673367 C160.999165,146.660639 169.781905,137.877899 169.794633,127.039924 L169.794633,43.309065 C169.806898,38.0918268 167.744533,33.083736 164.061883,29.3880882 C160.379233,25.6924404 155.378439,23.612444 150.16119,23.6063277 Z M11.5721822,43.2397705 C11.5721822,38.7749025 15.1916729,35.1554117 19.656541,35.1554117 L36.6336945,35.1554117 L11.4797895,57.8147146 L11.5721822,43.2397705 Z M19.656541,135.124283 C15.1916729,135.124283 11.5721822,131.504792 11.5721822,127.039924 L11.5721822,108.699979 L36.702989,135.124283 L19.656541,135.124283 Z M106.205377,23.6063277 L63.5199621,23.6063277 L63.5199621,15.0138092 C63.5199621,13.1002943 65.0711724,11.549084 66.9846873,11.549084 L102.740651,11.549084 C104.654166,11.549084 106.205377,13.1002943 106.205377,15.0138092 L106.205377,23.6063277 Z M158.245549,127.039924 C158.245549,131.504792 154.626058,135.124283 150.16119,135.124283 L132.444895,135.124283 L158.245549,110.547832 L158.245549,127.039924 Z M158.245549,60.7481819 L132.652779,35.1554117 L150.16119,35.1554117 C154.626058,35.1554117 158.245549,38.7749025 158.245549,43.2397705 L158.245549,60.7481819 Z" id="Shape"></path>
            </g>
        </g>
    </g>
</svg>