<?xml version="1.0" encoding="UTF-8"?>
<svg width="200px" height="200px" viewBox="0 0 200 200" version="1.1" xmlns="http://www.w3.org/2000/svg" xmlns:xlink="http://www.w3.org/1999/xlink">
    <!-- Generator: Sketch 45.2 (43514) - http://www.bohemiancoding.com/sketch -->
    <title>Wand</title>
    <desc>Created with Sketch.</desc>
    <defs></defs>
    <g id="Page-1" stroke="none" stroke-width="1" fill="none" fill-rule="evenodd">
        <g id="Wand" fill-rule="nonzero" fill="#231F20">
            <g id="g10" transform="translate(100.000000, 100.000000) scale(-1, 1) rotate(-180.000000) translate(-100.000000, -100.000000) translate(11.000000, 33.000000)">
                <g id="g30" transform="translate(0.000000, 0.000000)">
                    <path d="M176.469998,131.784462 C175.417994,133.260599 173.368518,133.603693 171.892381,132.552447 L61.1805577,53.6733876 L60.4125723,54.7458405 C59.7392598,55.6849941 58.1828398,55.7236206 56.9361891,54.8306673 C55.6895384,53.9384713 55.2252633,52.4517305 55.8978185,51.5110621 L56.6574726,50.44997 L55.9182678,49.9235895 L55.2669193,50.8316905 C54.5943641,51.7708441 53.0379442,51.8094706 51.7905361,50.9165173 C50.5446427,50.0243213 50.0803676,48.5375805 50.7529228,47.5984269 L51.3951827,46.7016867 L50.081125,45.7655625 C46.7009293,46.2389263 42.4149047,43.4457016 37.1442837,39.6663656 C31.3972693,35.5439356 13.5397174,24.6755044 5.46072396,19.3738306 C-2.61751207,14.0721569 -0.0931579815,8.77048314 5.46072396,3.21584382 C11.0153633,-2.33728074 15.8118633,2.20701104 20.8605714,9.5278651 C25.910037,16.8487192 44.8445861,31.4919421 50.4446683,35.2788519 C53.4931307,37.341203 54.3292804,39.3868916 54.4603075,40.8244026 L55.2176895,41.364416 L55.9114513,40.3957244 C56.5847639,39.4565708 58.1411838,39.4194591 59.3885919,40.311655 C60.6344853,41.2046084 61.0995178,42.6898344 60.4262052,43.628988 L59.7400172,44.5878336 L60.4799793,45.1142141 L61.0571044,44.3098744 C61.730417,43.369206 63.2868369,43.3320943 64.5334876,44.225805 C65.7801383,45.1172436 66.2444135,46.6024696 65.5718583,47.543138 L65.0030644,48.3361169 L175.701255,127.206088 C177.177392,128.258091 177.522001,130.308324 176.469998,131.784462" id="path32"></path>
                </g>
            </g>
        </g>
    </g>
</svg>