<?xml version="1.0" encoding="UTF-8"?>
<svg width="200px" height="200px" viewBox="0 0 200 200" version="1.1" xmlns="http://www.w3.org/2000/svg" xmlns:xlink="http://www.w3.org/1999/xlink">
    <!-- Generator: Sketch 45.2 (43514) - http://www.bohemiancoding.com/sketch -->
    <title>Patronus</title>
    <desc>Created with Sketch.</desc>
    <defs></defs>
    <g id="Page-1" stroke="none" stroke-width="1" fill="none" fill-rule="evenodd">
        <g id="Patronus" fill-rule="nonzero" fill="#231F20">
            <g id="g10" transform="translate(100.500000, 99.500000) scale(-1, 1) rotate(-180.000000) translate(-100.500000, -99.500000) translate(14.000000, 14.000000)">
                <g id="g246" transform="translate(0.000000, 0.000000)">
                    <path d="M86.6147346,170.718897 C39.2452618,170.718897 0.844807484,132.318443 0.844807484,84.94897 C0.844807484,61.9107059 9.94437576,41.0101939 24.7253685,25.6028134 C25.4747742,29.8080216 30.1331406,51.4541735 48.5594839,64.6648034 L32.3324017,67.7565729 C32.3324017,67.7565729 38.5146853,78.5733724 50.4913691,79.3466286 C50.4913691,79.3466286 59.7629116,106.003882 88.3533057,109.48228 C88.3533057,109.48228 101.489874,135.754161 110.761416,133.82102 C120.034214,131.889135 112.306673,104.45988 116.170444,104.45988 C120.034214,104.45988 122.352727,109.481024 125.829869,107.549139 C129.307012,105.618509 120.034214,97.505596 112.693301,72.005716 C106.512273,50.5327935 101.700762,15.3621902 101.026673,0.407967953 C141.530987,7.26559542 172.384662,42.4951972 172.384662,84.94897 C172.384662,132.318443 133.984207,170.718897 86.6147346,170.718897" id="path248"></path>
                </g>
            </g>
        </g>
    </g>
</svg>